<svg width="210" height="32" viewBox="0 0 210 32" fill="none" xmlns="http://www.w3.org/2000/svg">
<path d="M34.84 27.64C37.848 27.64 40.312 26.8613 42.232 25.304L42.424 25.432C42.3173 27.16 41.5067 28.632 39.992 29.848C38.2853 31.2346 36.1627 31.928 33.624 31.928C31.1067 31.928 28.376 31.2133 25.432 29.784C24.1093 29.1226 21.9227 27.8106 18.872 25.848C18.0187 25.272 17.048 24.7493 15.96 24.28C14.872 23.8106 13.8587 23.5333 12.92 23.448C9.12268 23.4053 6.10401 22.3493 3.86401 20.28C1.64534 18.1893 0.536011 15.3626 0.536011 11.8C0.536011 8.21598 1.66668 5.37864 3.92801 3.28798C6.21068 1.19731 9.27201 0.151978 13.112 0.151978C16.9733 0.151978 20.0347 1.19731 22.296 3.28798C24.5573 5.37864 25.688 8.21598 25.688 11.8C25.688 14.616 24.9627 16.9946 23.512 18.936C22.0827 20.856 20.0987 22.168 17.56 22.872C19.2667 23.2133 20.856 23.6613 22.328 24.216C23.8213 24.7706 25.5173 25.4106 27.416 26.136C29.976 27.1386 32.4507 27.64 34.84 27.64ZM5.75201 11.8C5.75201 13.8906 6.05068 15.7146 6.64801 17.272C7.24534 18.8293 8.09868 20.024 9.20801 20.856C10.3173 21.688 11.6187 22.104 13.112 22.104C15.3733 22.104 17.1653 21.1866 18.488 19.352C19.8107 17.496 20.472 14.9786 20.472 11.8C20.472 8.62131 19.8107 6.11465 18.488 4.27998C17.1653 2.42398 15.3733 1.49598 13.112 1.49598C10.8507 1.49598 9.05868 2.42398 7.73601 4.27998C6.41334 6.11465 5.75201 8.62131 5.75201 11.8Z" fill="#AF8D5F"/>
<path d="M49.045 4.11998H48.597C48.1917 4.11998 47.8503 4.24798 47.573 4.50398C47.2957 4.73865 47.1463 5.04798 47.125 5.43198V16.024C47.125 18.328 46.421 20.1413 45.013 21.464C43.605 22.7653 41.5037 23.416 38.709 23.416C35.9357 23.416 33.7703 22.776 32.213 21.496C30.677 20.216 29.909 18.4133 29.909 16.088V5.46398C29.909 5.07998 29.7597 4.75998 29.461 4.50398C29.1837 4.24798 28.8423 4.11998 28.437 4.11998H27.989V3.79998H36.405V4.11998H35.957C35.5517 4.11998 35.2103 4.24798 34.933 4.50398C34.6557 4.75998 34.517 5.07998 34.517 5.46398V15.864C34.517 17.8266 34.965 19.3626 35.861 20.472C36.7783 21.5813 38.0583 22.136 39.701 22.136C41.3437 22.136 42.6343 21.6133 43.573 20.568C44.533 19.5226 45.013 18.072 45.013 16.216V5.46398C44.9917 5.05864 44.8423 4.73865 44.565 4.50398C44.2877 4.24798 43.9463 4.11998 43.541 4.11998H43.125V3.79998H49.045V4.11998Z" fill="#AF8D5F"/>
<path d="M58.7123 5.11198H57.6883V20.984C57.6883 21.496 57.8589 21.912 58.2003 22.232C58.5629 22.5306 58.9683 22.68 59.4163 22.68H59.7683V23H50.9683V22.68H51.3523C51.8216 22.68 52.2163 22.52 52.5363 22.2C52.8776 21.88 53.0483 21.4853 53.0483 21.016V5.78398C53.0483 5.31465 52.8776 4.91998 52.5363 4.59998C52.2163 4.27998 51.8323 4.11998 51.3843 4.11998H50.9683V3.79998H60.7923C62.7123 3.79998 64.3229 4.17331 65.6243 4.91998C67.0749 5.75198 67.8003 7.12798 67.8003 9.04798C67.8003 10.2853 67.4269 11.4053 66.6803 12.408C65.9336 13.3893 64.8243 13.9866 63.3523 14.2C63.9283 14.392 64.4936 14.7546 65.0483 15.288C65.6243 15.8213 66.0829 16.3653 66.4243 16.92C67.1069 18.136 67.8216 19.256 68.5683 20.28C69.3149 21.2826 69.9123 21.9333 70.3603 22.232C70.8296 22.5306 71.3949 22.68 72.0563 22.68V23H69.3683C67.5976 23 66.2323 22.7866 65.2723 22.36C64.3336 21.9333 63.4909 21.1226 62.7443 19.928C61.5923 18.0933 60.8776 16.6426 60.6003 15.576C60.3443 14.936 60.0349 14.456 59.6723 14.136C59.3309 13.816 59.0003 13.6346 58.6803 13.592V13.336H59.4803C61.2936 13.3146 62.4029 12.248 62.8083 10.136C62.8936 9.81598 62.9363 9.53864 62.9363 9.30398C62.9363 9.06931 62.9256 8.74931 62.9043 8.34398C62.8829 7.91731 62.7443 7.44798 62.4883 6.93598C62.2536 6.40265 61.9443 6.01864 61.5603 5.78398C60.8989 5.37864 60.2163 5.16531 59.5123 5.14398C59.2776 5.12264 59.0109 5.11198 58.7123 5.11198Z" fill="#AF8D5F"/>
<path d="M92.562 22.68H92.818V23H83.41V22.68H83.666C84.0927 22.68 84.402 22.552 84.594 22.296C84.786 22.04 84.882 21.8053 84.882 21.592C84.882 21.3786 84.8393 21.1546 84.754 20.92L83.506 17.976H76.722L75.442 20.952C75.3567 21.1653 75.314 21.3893 75.314 21.624C75.314 21.8373 75.41 22.072 75.602 22.328C75.8153 22.5626 76.1353 22.68 76.562 22.68H76.818V23H70.418V22.68H70.674C71.122 22.68 71.57 22.5413 72.018 22.264C72.466 21.9866 72.8287 21.5706 73.106 21.016L79.73 6.80798C80.6687 4.69598 81.1593 3.39464 81.202 2.90398H81.49L90.066 20.888C90.3433 21.5066 90.706 21.9653 91.154 22.264C91.6233 22.5413 92.0927 22.68 92.562 22.68ZM77.266 16.728H82.962L80.146 10.04L77.266 16.728Z" fill="#AF8D5F"/>
<path d="M107.14 3.79998H116.132V4.11998H115.588C115.097 4.11998 114.681 4.26931 114.34 4.56798C114.02 4.86664 113.849 5.25064 113.828 5.71998V19.704C113.828 21.0266 113.913 22.1146 114.084 22.968L114.148 23.416H113.86L99.1718 10.456V21.048C99.1931 21.5173 99.3638 21.912 99.6838 22.232C100.025 22.5306 100.441 22.68 100.932 22.68H101.476V23H92.5158V22.68H93.0278C93.5184 22.68 93.9344 22.5306 94.2758 22.232C94.6171 21.912 94.7878 21.5173 94.7878 21.048V6.96798C94.7878 5.68798 94.7024 4.63198 94.5318 3.79998L94.4678 3.35198L94.7558 3.38398L109.412 16.28V5.75198C109.412 5.28264 109.241 4.89864 108.9 4.59998C108.58 4.27998 108.174 4.11998 107.684 4.11998H107.14V3.79998Z" fill="#AF8D5F"/>
<path d="M134.957 2.00798H133.581C133.539 2.00798 133.507 2.00798 133.485 2.00798V20.664C133.507 21.2186 133.709 21.6986 134.093 22.104C134.499 22.488 134.979 22.68 135.533 22.68H135.949V23H126.221V22.68H126.637C127.405 22.68 127.992 22.3493 128.397 21.688C128.568 21.3893 128.664 21.0586 128.685 20.696V2.93598C128.664 2.38131 128.451 1.91198 128.045 1.52798C127.661 1.12264 127.192 0.919977 126.637 0.919977H126.221V0.599977H137.197C139.267 0.599977 141.016 1.04798 142.445 1.94398C143.171 2.39198 143.747 3.02131 144.173 3.83198C144.6 4.62131 144.813 5.66664 144.813 6.96798C144.813 8.24798 144.365 9.48531 143.469 10.68C142.573 11.8746 141.272 12.5573 139.565 12.728C140.803 13.1333 141.891 14.072 142.829 15.544C145.133 19.2346 146.84 21.432 147.949 22.136C148.504 22.4773 149.197 22.6586 150.029 22.68V23H146.893C145.037 23 143.491 22.7546 142.253 22.264C141.037 21.7733 140.077 20.9093 139.373 19.672C138.968 18.968 138.083 17.144 136.717 14.2C136.12 12.8986 135.395 12.184 134.541 12.056V11.736H135.533C136.493 11.736 137.336 11.448 138.061 10.872C138.808 10.296 139.309 9.35731 139.565 8.05598C139.651 7.60798 139.693 7.25598 139.693 6.99998C139.693 5.25065 139.341 3.99198 138.637 3.22398C137.933 2.43464 137.027 2.02931 135.917 2.00798C135.704 2.00798 135.384 2.00798 134.957 2.00798Z" fill="#AF8D5F"/>
<path d="M164.473 23H149.401V22.68H149.785C150.275 22.68 150.681 22.52 151.001 22.2C151.342 21.88 151.523 21.4853 151.545 21.016V5.78398C151.523 5.31465 151.342 4.91998 151.001 4.59998C150.681 4.27998 150.275 4.11998 149.785 4.11998H149.401V3.79998H160.665C161.241 3.79998 161.87 3.74664 162.553 3.63998C163.235 3.53331 163.715 3.42665 163.993 3.31998V8.40798H163.673V8.11998C163.673 7.18131 163.417 6.44531 162.905 5.91198C162.393 5.37864 161.678 5.10131 160.761 5.07998H156.153V12.856H159.801C160.526 12.8346 161.113 12.5893 161.561 12.12C162.009 11.6506 162.233 11.0533 162.233 10.328V10.104H162.553V16.888H162.233V16.664C162.233 15.6613 161.859 14.936 161.113 14.488C160.729 14.2533 160.302 14.136 159.833 14.136H156.153V21.72H159.993C161.315 21.6986 162.435 21.2933 163.353 20.504C164.291 19.6933 164.974 18.5626 165.401 17.112H165.689L164.473 23Z" fill="#AF8D5F"/>
<path d="M187.656 22.68H187.912V23H178.504V22.68H178.76C179.186 22.68 179.496 22.552 179.688 22.296C179.88 22.04 179.976 21.8053 179.976 21.592C179.976 21.3786 179.933 21.1546 179.848 20.92L178.6 17.976H171.816L170.536 20.952C170.45 21.1653 170.408 21.3893 170.408 21.624C170.408 21.8373 170.504 22.072 170.696 22.328C170.909 22.5626 171.229 22.68 171.656 22.68H171.912V23H165.512V22.68H165.768C166.216 22.68 166.664 22.5413 167.112 22.264C167.56 21.9866 167.922 21.5706 168.2 21.016L174.824 6.80798C175.762 4.69598 176.253 3.39464 176.296 2.90398H176.584L185.16 20.888C185.437 21.5066 185.8 21.9653 186.248 22.264C186.717 22.5413 187.186 22.68 187.656 22.68ZM172.36 16.728H178.056L175.24 10.04L172.36 16.728Z" fill="#AF8D5F"/>
<path d="M206.874 6.35998C208.815 8.04531 209.786 10.392 209.786 13.4C209.786 16.408 208.815 18.7653 206.874 20.472C204.932 22.1573 202.244 23 198.81 23H187.994V22.68H188.41C188.9 22.68 189.316 22.5093 189.658 22.168C189.999 21.8266 190.18 21.4213 190.202 20.952V5.78398C190.159 5.31465 189.967 4.91998 189.626 4.59998C189.284 4.27998 188.868 4.11998 188.378 4.11998H187.994V3.79998H198.81C202.244 3.79998 204.932 4.65331 206.874 6.35998ZM198.426 21.72C200.431 21.72 202.01 20.984 203.162 19.512C204.335 18.04 204.922 16.0026 204.922 13.4C204.922 10.7973 204.335 8.75998 203.162 7.28798C202.01 5.79464 200.431 5.04798 198.426 5.04798H194.81V21.72H198.426Z" fill="#AF8D5F"/>
</svg>
