<svg width="472" height="76" viewBox="0 0 472 76" fill="none" xmlns="http://www.w3.org/2000/svg">
<path d="M77.64 62.44C84.408 62.44 89.952 60.688 94.272 57.184L94.704 57.472C94.464 61.36 92.64 64.672 89.232 67.408C85.392 70.528 80.616 72.088 74.904 72.088C69.24 72.088 63.096 70.48 56.472 67.264C53.496 65.776 48.576 62.824 41.712 58.408C39.792 57.112 37.608 55.936 35.16 54.88C32.712 53.824 30.432 53.2 28.32 53.008C19.776 52.912 12.984 50.536 7.94399 45.88C2.95199 41.176 0.455994 34.816 0.455994 26.8C0.455994 18.736 2.99999 12.352 8.08799 7.64798C13.224 2.94398 20.112 0.59198 28.752 0.59198C37.44 0.59198 44.328 2.94398 49.416 7.64798C54.504 12.352 57.048 18.736 57.048 26.8C57.048 33.136 55.416 38.488 52.152 42.856C48.936 47.176 44.472 50.128 38.76 51.712C42.6 52.48 46.176 53.488 49.488 54.736C52.848 55.984 56.664 57.424 60.936 59.056C66.696 61.312 72.264 62.44 77.64 62.44ZM12.192 26.8C12.192 31.504 12.864 35.608 14.208 39.112C15.552 42.616 17.472 45.304 19.968 47.176C22.464 49.048 25.392 49.984 28.752 49.984C33.84 49.984 37.872 47.92 40.848 43.792C43.824 39.616 45.312 33.952 45.312 26.8C45.312 19.648 43.824 14.008 40.848 9.87998C37.872 5.70398 33.84 3.61598 28.752 3.61598C23.664 3.61598 19.632 5.70398 16.656 9.87998C13.68 14.008 12.192 19.648 12.192 26.8Z" fill="#AF8D5F"/>
<path d="M109.601 9.51998H108.593C107.681 9.51998 106.913 9.80798 106.289 10.384C105.665 10.912 105.329 11.608 105.281 12.472V36.304C105.281 41.488 103.697 45.568 100.529 48.544C97.3612 51.472 92.6332 52.936 86.3452 52.936C80.1052 52.936 75.2332 51.496 71.7292 48.616C68.2732 45.736 66.5452 41.68 66.5452 36.448V12.544C66.5452 11.68 66.2092 10.96 65.5372 10.384C64.9132 9.80798 64.1452 9.51998 63.2332 9.51998H62.2252V8.79998H81.1612V9.51998H80.1532C79.2412 9.51998 78.4732 9.80798 77.8492 10.384C77.2252 10.96 76.9132 11.68 76.9132 12.544V35.944C76.9132 40.36 77.9212 43.816 79.9372 46.312C82.0012 48.808 84.8812 50.056 88.5772 50.056C92.2732 50.056 95.1772 48.88 97.2892 46.528C99.4492 44.176 100.529 40.912 100.529 36.736V12.544C100.481 11.632 100.145 10.912 99.5212 10.384C98.8972 9.80798 98.1292 9.51998 97.2172 9.51998H96.2812V8.79998H109.601V9.51998Z" fill="#AF8D5F"/>
<path d="M131.353 11.752H129.049V47.464C129.049 48.616 129.433 49.552 130.201 50.272C131.017 50.944 131.929 51.28 132.937 51.28H133.729V52H113.929V51.28H114.793C115.849 51.28 116.737 50.92 117.457 50.2C118.225 49.48 118.609 48.592 118.609 47.536V13.264C118.609 12.208 118.225 11.32 117.457 10.6C116.737 9.87998 115.873 9.51998 114.865 9.51998H113.929V8.79998H136.033C140.353 8.79998 143.977 9.63998 146.905 11.32C150.169 13.192 151.801 16.288 151.801 20.608C151.801 23.392 150.961 25.912 149.281 28.168C147.601 30.376 145.105 31.72 141.793 32.2C143.089 32.632 144.361 33.448 145.609 34.648C146.905 35.848 147.937 37.072 148.705 38.32C150.241 41.056 151.849 43.576 153.529 45.88C155.209 48.136 156.553 49.6 157.561 50.272C158.617 50.944 159.889 51.28 161.377 51.28V52H155.329C151.345 52 148.273 51.52 146.113 50.56C144.001 49.6 142.105 47.776 140.425 45.088C137.833 40.96 136.225 37.696 135.601 35.296C135.025 33.856 134.329 32.776 133.513 32.056C132.745 31.336 132.001 30.928 131.281 30.832V30.256H133.081C137.161 30.208 139.657 27.808 140.569 23.056C140.761 22.336 140.857 21.712 140.857 21.184C140.857 20.656 140.833 19.936 140.785 19.024C140.737 18.064 140.425 17.008 139.849 15.856C139.321 14.656 138.625 13.792 137.761 13.264C136.273 12.352 134.737 11.872 133.153 11.824C132.625 11.776 132.025 11.752 131.353 11.752Z" fill="#AF8D5F"/>
<path d="M207.514 51.28H208.09V52H186.923V51.28H187.499C188.459 51.28 189.154 50.992 189.587 50.416C190.019 49.84 190.234 49.312 190.234 48.832C190.234 48.352 190.139 47.848 189.947 47.32L187.139 40.696H171.874L168.995 47.392C168.803 47.872 168.706 48.376 168.706 48.904C168.706 49.384 168.923 49.912 169.355 50.488C169.835 51.016 170.554 51.28 171.514 51.28H172.09V52H157.691V51.28H158.266C159.274 51.28 160.283 50.968 161.29 50.344C162.298 49.72 163.115 48.784 163.738 47.536L178.643 15.568C180.755 10.816 181.859 7.88798 181.954 6.78398H182.603L201.898 47.248C202.522 48.64 203.339 49.672 204.346 50.344C205.402 50.968 206.458 51.28 207.514 51.28ZM173.098 37.888H185.915L179.579 22.84L173.098 37.888Z" fill="#AF8D5F"/>
<path d="M240.314 8.79998H260.546V9.51998H259.322C258.218 9.51998 257.282 9.85598 256.514 10.528C255.794 11.2 255.41 12.064 255.362 13.12V44.584C255.362 47.56 255.554 50.008 255.938 51.928L256.082 52.936H255.434L222.386 23.776V47.608C222.434 48.664 222.818 49.552 223.538 50.272C224.306 50.944 225.242 51.28 226.346 51.28H227.57V52H207.41V51.28H208.562C209.666 51.28 210.602 50.944 211.37 50.272C212.138 49.552 212.522 48.664 212.522 47.608V15.928C212.522 13.048 212.33 10.672 211.946 8.79998L211.802 7.79198L212.45 7.86398L245.426 36.88V13.192C245.426 12.136 245.042 11.272 244.274 10.6C243.554 9.87998 242.642 9.51998 241.538 9.51998H240.314V8.79998Z" fill="#AF8D5F"/>
<path d="M302.904 4.76798H299.808C299.712 4.76798 299.64 4.76798 299.592 4.76798V46.744C299.64 47.992 300.096 49.072 300.96 49.984C301.872 50.848 302.952 51.28 304.2 51.28H305.136V52H283.248V51.28H284.184C285.912 51.28 287.232 50.536 288.144 49.048C288.528 48.376 288.744 47.632 288.792 46.816V6.85598C288.744 5.60798 288.264 4.55198 287.352 3.68798C286.488 2.77598 285.432 2.31998 284.184 2.31998H283.248V1.59998H307.944C312.6 1.59998 316.536 2.60798 319.752 4.62398C321.384 5.63198 322.68 7.04798 323.64 8.87198C324.6 10.648 325.08 13 325.08 15.928C325.08 18.808 324.072 21.592 322.056 24.28C320.04 26.968 317.112 28.504 313.272 28.888C316.056 29.8 318.504 31.912 320.616 35.224C325.8 43.528 329.64 48.472 332.136 50.056C333.384 50.824 334.944 51.232 336.816 51.28V52H329.76C325.584 52 322.104 51.448 319.32 50.344C316.584 49.24 314.424 47.296 312.84 44.512C311.928 42.928 309.936 38.824 306.864 32.2C305.52 29.272 303.888 27.664 301.968 27.376V26.656H304.2C306.36 26.656 308.256 26.008 309.888 24.712C311.568 23.416 312.696 21.304 313.272 18.376C313.464 17.368 313.56 16.576 313.56 16C313.56 12.064 312.768 9.23198 311.184 7.50398C309.6 5.72798 307.56 4.81598 305.064 4.76798C304.584 4.76798 303.864 4.76798 302.904 4.76798Z" fill="#AF8D5F"/>
<path d="M369.313 52H335.401V51.28H336.265C337.369 51.28 338.281 50.92 339.001 50.2C339.769 49.48 340.177 48.592 340.225 47.536V13.264C340.177 12.208 339.769 11.32 339.001 10.6C338.281 9.87998 337.369 9.51998 336.265 9.51998H335.401V8.79998H360.745C362.041 8.79998 363.457 8.67998 364.993 8.43998C366.529 8.19998 367.609 7.95998 368.233 7.71998V19.168H367.513V18.52C367.513 16.408 366.937 14.752 365.785 13.552C364.633 12.352 363.025 11.728 360.961 11.68H350.593V29.176H358.801C360.433 29.128 361.753 28.576 362.761 27.52C363.769 26.464 364.273 25.12 364.273 23.488V22.984H364.993V38.248H364.273V37.744C364.273 35.488 363.433 33.856 361.753 32.848C360.889 32.32 359.929 32.056 358.873 32.056H350.593V49.12H359.233C362.209 49.072 364.729 48.16 366.793 46.384C368.905 44.56 370.441 42.016 371.401 38.752H372.049L369.313 52Z" fill="#AF8D5F"/>
<path d="M421.475 51.28H422.051V52H400.883V51.28H401.459C402.419 51.28 403.115 50.992 403.547 50.416C403.979 49.84 404.195 49.312 404.195 48.832C404.195 48.352 404.099 47.848 403.907 47.32L401.099 40.696H385.835L382.955 47.392C382.763 47.872 382.667 48.376 382.667 48.904C382.667 49.384 382.883 49.912 383.315 50.488C383.795 51.016 384.515 51.28 385.475 51.28H386.051V52H371.651V51.28H372.227C373.235 51.28 374.243 50.968 375.251 50.344C376.259 49.72 377.075 48.784 377.699 47.536L392.603 15.568C394.715 10.816 395.819 7.88798 395.915 6.78398H396.563L415.859 47.248C416.483 48.64 417.299 49.672 418.307 50.344C419.363 50.968 420.419 51.28 421.475 51.28ZM387.059 37.888H399.875L393.539 22.84L387.059 37.888Z" fill="#AF8D5F"/>
<path d="M464.715 14.56C469.083 18.352 471.267 23.632 471.267 30.4C471.267 37.168 469.083 42.472 464.715 46.312C460.347 50.104 454.299 52 446.571 52H422.235V51.28H423.171C424.275 51.28 425.211 50.896 425.979 50.128C426.747 49.36 427.155 48.448 427.203 47.392V13.264C427.107 12.208 426.675 11.32 425.907 10.6C425.139 9.87998 424.203 9.51998 423.099 9.51998H422.235V8.79998H446.571C454.299 8.79998 460.347 10.72 464.715 14.56ZM445.707 49.12C450.219 49.12 453.771 47.464 456.363 44.152C459.003 40.84 460.323 36.256 460.323 30.4C460.323 24.544 459.003 19.96 456.363 16.648C453.771 13.288 450.219 11.608 445.707 11.608H437.571V49.12H445.707Z" fill="#AF8D5F"/>
<path d="M112.6 65.3V73H112.039V69.7C111.152 70.0887 110.297 70.283 109.476 70.283C108.603 70.283 107.921 70.074 107.43 69.656C106.946 69.2307 106.704 68.6367 106.704 67.874V65.3H107.265V67.819C107.265 68.435 107.463 68.9153 107.859 69.26C108.255 69.6047 108.809 69.777 109.52 69.777C110.305 69.777 111.144 69.579 112.039 69.183V65.3H112.6Z" fill="#676767"/>
<path d="M115.169 67.258H115.719V72.153L119.811 67.258H120.295V73H119.745V68.105L115.653 73H115.169V67.258Z" fill="#676767"/>
<path d="M126.506 67.753H124.262V73H123.712V67.753H121.468V67.258H126.506V67.753Z" fill="#676767"/>
<path d="M129.587 67.214C130.298 67.214 130.845 67.3973 131.226 67.764C131.607 68.1233 131.798 68.655 131.798 69.359V73H131.27V71.977C131.087 72.3143 130.819 72.5783 130.467 72.769C130.115 72.9523 129.693 73.044 129.202 73.044C128.564 73.044 128.058 72.8937 127.684 72.593C127.317 72.2923 127.134 71.8963 127.134 71.405C127.134 70.9283 127.303 70.5433 127.64 70.25C127.985 69.9493 128.531 69.799 129.279 69.799H131.248V69.337C131.248 68.8017 131.101 68.3947 130.808 68.116C130.522 67.8373 130.1 67.698 129.543 67.698C129.162 67.698 128.795 67.764 128.443 67.896C128.098 68.028 127.805 68.204 127.563 68.424L127.288 68.028C127.574 67.7713 127.919 67.5733 128.322 67.434C128.725 67.2873 129.147 67.214 129.587 67.214ZM129.279 72.593C129.756 72.593 130.159 72.483 130.489 72.263C130.826 72.043 131.079 71.724 131.248 71.306V70.228H129.29C128.725 70.228 128.315 70.3307 128.058 70.536C127.809 70.7413 127.684 71.0237 127.684 71.383C127.684 71.757 127.823 72.054 128.102 72.274C128.381 72.4867 128.773 72.593 129.279 72.593Z" fill="#676767"/>
<path d="M134.033 67.258H134.583V72.153L138.675 67.258H139.159V73H138.609V68.105L134.517 73H134.033V67.258ZM136.574 66.378C136.112 66.378 135.738 66.2607 135.452 66.026C135.166 65.784 135.019 65.4503 135.012 65.025H135.419C135.426 65.3257 135.536 65.564 135.749 65.74C135.969 65.916 136.244 66.004 136.574 66.004C136.904 66.004 137.175 65.916 137.388 65.74C137.6 65.564 137.71 65.3257 137.718 65.025H138.136C138.128 65.4503 137.982 65.784 137.696 66.026C137.41 66.2607 137.036 66.378 136.574 66.378Z" fill="#676767"/>
<path d="M147.755 70.041C148.598 70.1877 149.02 70.6607 149.02 71.46C149.02 71.9587 148.837 72.34 148.47 72.604C148.111 72.868 147.568 73 146.842 73H144.356V67.258H146.776C147.414 67.258 147.913 67.3863 148.272 67.643C148.639 67.8923 148.822 68.2517 148.822 68.721C148.822 69.0583 148.727 69.3407 148.536 69.568C148.353 69.788 148.092 69.9457 147.755 70.041ZM144.895 69.876H146.743C147.234 69.876 147.612 69.7843 147.876 69.601C148.14 69.4103 148.272 69.139 148.272 68.787C148.272 68.4277 148.14 68.16 147.876 67.984C147.619 67.8007 147.242 67.709 146.743 67.709H144.895V69.876ZM146.831 72.549C147.924 72.549 148.47 72.1787 148.47 71.438C148.47 71.0493 148.345 70.7633 148.096 70.58C147.847 70.3967 147.454 70.305 146.919 70.305H144.895V72.549H146.831Z" fill="#676767"/>
<path d="M153.261 73.044C152.718 73.044 152.227 72.9193 151.787 72.67C151.354 72.4207 151.013 72.076 150.764 71.636C150.515 71.1887 150.39 70.6863 150.39 70.129C150.39 69.5717 150.515 69.073 150.764 68.633C151.013 68.1857 151.354 67.8373 151.787 67.588C152.227 67.3387 152.718 67.214 153.261 67.214C153.804 67.214 154.291 67.3387 154.724 67.588C155.164 67.8373 155.509 68.1857 155.758 68.633C156.007 69.073 156.132 69.5717 156.132 70.129C156.132 70.6863 156.007 71.1887 155.758 71.636C155.509 72.076 155.164 72.4207 154.724 72.67C154.291 72.9193 153.804 73.044 153.261 73.044ZM153.261 72.549C153.701 72.549 154.093 72.4463 154.438 72.241C154.79 72.0357 155.065 71.7497 155.263 71.383C155.468 71.0163 155.571 70.5983 155.571 70.129C155.571 69.6597 155.468 69.2417 155.263 68.875C155.065 68.5083 154.79 68.2223 154.438 68.017C154.093 67.8117 153.701 67.709 153.261 67.709C152.821 67.709 152.425 67.8117 152.073 68.017C151.728 68.2223 151.453 68.5083 151.248 68.875C151.05 69.2417 150.951 69.6597 150.951 70.129C150.951 70.5983 151.05 71.0163 151.248 71.383C151.453 71.7497 151.728 72.0357 152.073 72.241C152.425 72.4463 152.821 72.549 153.261 72.549Z" fill="#676767"/>
<path d="M160.749 67.258H161.299V72.153L165.391 67.258H165.875V73H165.325V68.105L161.233 73H160.749V67.258Z" fill="#676767"/>
<path d="M174.495 67.258V73H173.989V68.138L171.492 72.263H171.239L168.753 68.149V73H168.247V67.258H168.786L171.382 71.603L173.989 67.258H174.495Z" fill="#676767"/>
<path d="M181.108 67.258V73H180.602V71.02H178.688C178.556 71.02 178.46 71.0163 178.402 71.009L176.983 73H176.378L177.863 70.943C177.393 70.8403 177.034 70.6387 176.785 70.338C176.535 70.0373 176.411 69.6487 176.411 69.172C176.411 68.5413 176.62 68.0647 177.038 67.742C177.463 67.4193 178.042 67.258 178.776 67.258H181.108ZM176.961 69.194C176.961 70.1327 177.555 70.602 178.743 70.602H180.602V67.742H178.809C177.577 67.742 176.961 68.226 176.961 69.194Z" fill="#676767"/>
<path d="M190.143 67.753H187.899V73H187.349V67.753H185.105V67.258H190.143V67.753Z" fill="#676767"/>
<path d="M194.72 70.041C195.563 70.1877 195.985 70.6607 195.985 71.46C195.985 71.9587 195.801 72.34 195.435 72.604C195.075 72.868 194.533 73 193.807 73H191.321V67.258H193.741C194.379 67.258 194.877 67.3863 195.237 67.643C195.603 67.8923 195.787 68.2517 195.787 68.721C195.787 69.0583 195.691 69.3407 195.501 69.568C195.317 69.788 195.057 69.9457 194.72 70.041ZM191.86 69.876H193.708C194.199 69.876 194.577 69.7843 194.841 69.601C195.105 69.4103 195.237 69.139 195.237 68.787C195.237 68.4277 195.105 68.16 194.841 67.984C194.584 67.8007 194.206 67.709 193.708 67.709H191.86V69.876ZM193.796 72.549C194.888 72.549 195.435 72.1787 195.435 71.438C195.435 71.0493 195.31 70.7633 195.061 70.58C194.811 70.3967 194.419 70.305 193.884 70.305H191.86V72.549H193.796Z" fill="#676767"/>
<path d="M200.226 73.044C199.683 73.044 199.192 72.9193 198.752 72.67C198.319 72.4207 197.978 72.076 197.729 71.636C197.48 71.1887 197.355 70.6863 197.355 70.129C197.355 69.5717 197.48 69.073 197.729 68.633C197.978 68.1857 198.319 67.8373 198.752 67.588C199.192 67.3387 199.683 67.214 200.226 67.214C200.769 67.214 201.256 67.3387 201.689 67.588C202.129 67.8373 202.474 68.1857 202.723 68.633C202.972 69.073 203.097 69.5717 203.097 70.129C203.097 70.6863 202.972 71.1887 202.723 71.636C202.474 72.076 202.129 72.4207 201.689 72.67C201.256 72.9193 200.769 73.044 200.226 73.044ZM200.226 72.549C200.666 72.549 201.058 72.4463 201.403 72.241C201.755 72.0357 202.03 71.7497 202.228 71.383C202.433 71.0163 202.536 70.5983 202.536 70.129C202.536 69.6597 202.433 69.2417 202.228 68.875C202.03 68.5083 201.755 68.2223 201.403 68.017C201.058 67.8117 200.666 67.709 200.226 67.709C199.786 67.709 199.39 67.8117 199.038 68.017C198.693 68.2223 198.418 68.5083 198.213 68.875C198.015 69.2417 197.916 69.6597 197.916 70.129C197.916 70.5983 198.015 71.0163 198.213 71.383C198.418 71.7497 198.693 72.0357 199.038 72.241C199.39 72.4463 199.786 72.549 200.226 72.549Z" fill="#676767"/>
<path d="M209.783 70.261H204.844C204.859 70.7083 204.973 71.108 205.185 71.46C205.398 71.8047 205.684 72.0723 206.043 72.263C206.41 72.4537 206.821 72.549 207.275 72.549C207.649 72.549 207.994 72.483 208.309 72.351C208.632 72.2117 208.9 72.01 209.112 71.746L209.431 72.109C209.182 72.4097 208.867 72.6407 208.485 72.802C208.111 72.9633 207.704 73.044 207.264 73.044C206.692 73.044 206.183 72.9193 205.735 72.67C205.288 72.4207 204.936 72.076 204.679 71.636C204.43 71.196 204.305 70.6937 204.305 70.129C204.305 69.5717 204.423 69.073 204.657 68.633C204.899 68.1857 205.229 67.8373 205.647 67.588C206.065 67.3387 206.535 67.214 207.055 67.214C207.576 67.214 208.042 67.3387 208.452 67.588C208.87 67.83 209.197 68.171 209.431 68.611C209.673 69.051 209.794 69.5497 209.794 70.107L209.783 70.261ZM207.055 67.698C206.652 67.698 206.289 67.7897 205.966 67.973C205.644 68.149 205.383 68.402 205.185 68.732C204.995 69.0547 204.885 69.4213 204.855 69.832H209.255C209.233 69.4213 209.123 69.0547 208.925 68.732C208.727 68.4093 208.467 68.1563 208.144 67.973C207.822 67.7897 207.459 67.698 207.055 67.698Z" fill="#676767"/>
<path d="M215.518 67.753H212.141V73H211.591V67.258H215.518V67.753Z" fill="#676767"/>
<path d="M218.713 73.044C218.171 73.044 217.679 72.9193 217.239 72.67C216.807 72.4207 216.466 72.076 216.216 71.636C215.967 71.1887 215.842 70.6863 215.842 70.129C215.842 69.5717 215.967 69.073 216.216 68.633C216.466 68.1857 216.807 67.8373 217.239 67.588C217.679 67.3387 218.171 67.214 218.713 67.214C219.256 67.214 219.744 67.3387 220.176 67.588C220.616 67.8373 220.961 68.1857 221.21 68.633C221.46 69.073 221.584 69.5717 221.584 70.129C221.584 70.6863 221.46 71.1887 221.21 71.636C220.961 72.076 220.616 72.4207 220.176 72.67C219.744 72.9193 219.256 73.044 218.713 73.044ZM218.713 72.549C219.153 72.549 219.546 72.4463 219.89 72.241C220.242 72.0357 220.517 71.7497 220.715 71.383C220.921 71.0163 221.023 70.5983 221.023 70.129C221.023 69.6597 220.921 69.2417 220.715 68.875C220.517 68.5083 220.242 68.2223 219.89 68.017C219.546 67.8117 219.153 67.709 218.713 67.709C218.273 67.709 217.877 67.8117 217.525 68.017C217.181 68.2223 216.906 68.5083 216.7 68.875C216.502 69.2417 216.403 69.6597 216.403 70.129C216.403 70.5983 216.502 71.0163 216.7 71.383C216.906 71.7497 217.181 72.0357 217.525 72.241C217.877 72.4463 218.273 72.549 218.713 72.549Z" fill="#676767"/>
<path d="M231.162 65.806H226.96V73H226.399V65.3H231.162V65.806Z" fill="#676767"/>
<path d="M233.022 73.044C232.479 73.044 231.988 72.9193 231.548 72.67C231.115 72.4207 230.774 72.076 230.525 71.636C230.276 71.1887 230.151 70.6863 230.151 70.129C230.151 69.5717 230.276 69.073 230.525 68.633C230.774 68.1857 231.115 67.8373 231.548 67.588C231.988 67.3387 232.479 67.214 233.022 67.214C233.565 67.214 234.052 67.3387 234.485 67.588C234.925 67.8373 235.27 68.1857 235.519 68.633C235.768 69.073 235.893 69.5717 235.893 70.129C235.893 70.6863 235.768 71.1887 235.519 71.636C235.27 72.076 234.925 72.4207 234.485 72.67C234.052 72.9193 233.565 73.044 233.022 73.044ZM233.022 72.549C233.462 72.549 233.854 72.4463 234.199 72.241C234.551 72.0357 234.826 71.7497 235.024 71.383C235.229 71.0163 235.332 70.5983 235.332 70.129C235.332 69.6597 235.229 69.2417 235.024 68.875C234.826 68.5083 234.551 68.2223 234.199 68.017C233.854 67.8117 233.462 67.709 233.022 67.709C232.582 67.709 232.186 67.8117 231.834 68.017C231.489 68.2223 231.214 68.5083 231.009 68.875C230.811 69.2417 230.712 69.6597 230.712 70.129C230.712 70.5983 230.811 71.0163 231.009 71.383C231.214 71.7497 231.489 72.0357 231.834 72.241C232.186 72.4463 232.582 72.549 233.022 72.549Z" fill="#676767"/>
<path d="M240.005 73.044C239.448 73.044 238.949 72.9193 238.509 72.67C238.069 72.4207 237.724 72.076 237.475 71.636C237.226 71.1887 237.101 70.6863 237.101 70.129C237.101 69.5643 237.226 69.062 237.475 68.622C237.724 68.1747 238.069 67.83 238.509 67.588C238.949 67.3387 239.448 67.214 240.005 67.214C240.467 67.214 240.885 67.3057 241.259 67.489C241.64 67.665 241.948 67.9253 242.183 68.27L241.776 68.567C241.571 68.281 241.314 68.0683 241.006 67.929C240.705 67.7823 240.372 67.709 240.005 67.709C239.558 67.709 239.154 67.8117 238.795 68.017C238.443 68.215 238.164 68.4973 237.959 68.864C237.761 69.2307 237.662 69.6523 237.662 70.129C237.662 70.6057 237.761 71.0273 237.959 71.394C238.164 71.7607 238.443 72.0467 238.795 72.252C239.154 72.45 239.558 72.549 240.005 72.549C240.372 72.549 240.705 72.4793 241.006 72.34C241.314 72.1933 241.571 71.977 241.776 71.691L242.183 71.988C241.948 72.3327 241.64 72.5967 241.259 72.78C240.885 72.956 240.467 73.044 240.005 73.044Z" fill="#676767"/>
<path d="M248.823 67.258V73H248.273V67.753H244.357V73H243.807V67.258H248.823Z" fill="#676767"/>
<path d="M253.486 73.044C252.943 73.044 252.452 72.9193 252.012 72.67C251.579 72.4207 251.238 72.076 250.989 71.636C250.739 71.1887 250.615 70.6863 250.615 70.129C250.615 69.5717 250.739 69.073 250.989 68.633C251.238 68.1857 251.579 67.8373 252.012 67.588C252.452 67.3387 252.943 67.214 253.486 67.214C254.028 67.214 254.516 67.3387 254.949 67.588C255.389 67.8373 255.733 68.1857 255.983 68.633C256.232 69.073 256.357 69.5717 256.357 70.129C256.357 70.6863 256.232 71.1887 255.983 71.636C255.733 72.076 255.389 72.4207 254.949 72.67C254.516 72.9193 254.028 73.044 253.486 73.044ZM253.486 72.549C253.926 72.549 254.318 72.4463 254.663 72.241C255.015 72.0357 255.29 71.7497 255.488 71.383C255.693 71.0163 255.796 70.5983 255.796 70.129C255.796 69.6597 255.693 69.2417 255.488 68.875C255.29 68.5083 255.015 68.2223 254.663 68.017C254.318 67.8117 253.926 67.709 253.486 67.709C253.046 67.709 252.65 67.8117 252.298 68.017C251.953 68.2223 251.678 68.5083 251.473 68.875C251.275 69.2417 251.176 69.6597 251.176 70.129C251.176 70.5983 251.275 71.0163 251.473 71.383C251.678 71.7497 251.953 72.0357 252.298 72.241C252.65 72.4463 253.046 72.549 253.486 72.549Z" fill="#676767"/>
<path d="M263.527 72.516V74.43H263.01V73H257.576V74.43H257.048V72.516H257.389C257.778 72.494 258.042 72.1933 258.181 71.614C258.328 71.0273 258.431 70.206 258.489 69.15L258.566 67.258H262.603V72.516H263.527ZM258.995 69.183C258.959 70.0557 258.885 70.7817 258.775 71.361C258.665 71.9403 258.467 72.3253 258.181 72.516H262.053V67.753H259.061L258.995 69.183Z" fill="#676767"/>
<path d="M267.055 67.214C267.766 67.214 268.313 67.3973 268.694 67.764C269.075 68.1233 269.266 68.655 269.266 69.359V73H268.738V71.977C268.555 72.3143 268.287 72.5783 267.935 72.769C267.583 72.9523 267.161 73.044 266.67 73.044C266.032 73.044 265.526 72.8937 265.152 72.593C264.785 72.2923 264.602 71.8963 264.602 71.405C264.602 70.9283 264.771 70.5433 265.108 70.25C265.453 69.9493 265.999 69.799 266.747 69.799H268.716V69.337C268.716 68.8017 268.569 68.3947 268.276 68.116C267.99 67.8373 267.568 67.698 267.011 67.698C266.63 67.698 266.263 67.764 265.911 67.896C265.566 68.028 265.273 68.204 265.031 68.424L264.756 68.028C265.042 67.7713 265.387 67.5733 265.79 67.434C266.193 67.2873 266.615 67.214 267.055 67.214ZM266.747 72.593C267.224 72.593 267.627 72.483 267.957 72.263C268.294 72.043 268.547 71.724 268.716 71.306V70.228H266.758C266.193 70.228 265.783 70.3307 265.526 70.536C265.277 70.7413 265.152 71.0237 265.152 71.383C265.152 71.757 265.291 72.054 265.57 72.274C265.849 72.4867 266.241 72.593 266.747 72.593Z" fill="#676767"/>
<path d="M271.413 72.109C271.545 72.109 271.654 72.1567 271.742 72.252C271.83 72.34 271.874 72.4463 271.874 72.571C271.874 72.6443 271.864 72.7213 271.842 72.802C271.827 72.8827 271.805 72.9743 271.775 73.077L271.346 74.573H270.951L271.314 73.022C271.204 72.9927 271.115 72.9413 271.049 72.868C270.984 72.7873 270.951 72.6883 270.951 72.571C270.951 72.439 270.995 72.329 271.083 72.241C271.171 72.153 271.281 72.109 271.413 72.109Z" fill="#676767"/>
<path d="M279.135 69.348H277.287V73H276.726V65.3H277.287V68.842H279.146L281.907 65.3H282.534L279.586 69.051L282.732 73H282.072L279.135 69.348Z" fill="#676767"/>
<path d="M286.131 73.044C285.589 73.044 285.097 72.9193 284.657 72.67C284.225 72.4207 283.884 72.076 283.634 71.636C283.385 71.1887 283.26 70.6863 283.26 70.129C283.26 69.5717 283.385 69.073 283.634 68.633C283.884 68.1857 284.225 67.8373 284.657 67.588C285.097 67.3387 285.589 67.214 286.131 67.214C286.674 67.214 287.162 67.3387 287.594 67.588C288.034 67.8373 288.379 68.1857 288.628 68.633C288.878 69.073 289.002 69.5717 289.002 70.129C289.002 70.6863 288.878 71.1887 288.628 71.636C288.379 72.076 288.034 72.4207 287.594 72.67C287.162 72.9193 286.674 73.044 286.131 73.044ZM286.131 72.549C286.571 72.549 286.964 72.4463 287.308 72.241C287.66 72.0357 287.935 71.7497 288.133 71.383C288.339 71.0163 288.441 70.5983 288.441 70.129C288.441 69.6597 288.339 69.2417 288.133 68.875C287.935 68.5083 287.66 68.2223 287.308 68.017C286.964 67.8117 286.571 67.709 286.131 67.709C285.691 67.709 285.295 67.8117 284.943 68.017C284.599 68.2223 284.324 68.5083 284.118 68.875C283.92 69.2417 283.821 69.6597 283.821 70.129C283.821 70.5983 283.92 71.0163 284.118 71.383C284.324 71.7497 284.599 72.0357 284.943 72.241C285.295 72.4463 285.691 72.549 286.131 72.549Z" fill="#676767"/>
<path d="M294.418 67.753H292.174V73H291.624V67.753H289.38V67.258H294.418V67.753Z" fill="#676767"/>
<path d="M297.615 73.044C297.072 73.044 296.581 72.9193 296.141 72.67C295.708 72.4207 295.367 72.076 295.118 71.636C294.868 71.1887 294.744 70.6863 294.744 70.129C294.744 69.5717 294.868 69.073 295.118 68.633C295.367 68.1857 295.708 67.8373 296.141 67.588C296.581 67.3387 297.072 67.214 297.615 67.214C298.157 67.214 298.645 67.3387 299.078 67.588C299.518 67.8373 299.862 68.1857 300.112 68.633C300.361 69.073 300.486 69.5717 300.486 70.129C300.486 70.6863 300.361 71.1887 300.112 71.636C299.862 72.076 299.518 72.4207 299.078 72.67C298.645 72.9193 298.157 73.044 297.615 73.044ZM297.615 72.549C298.055 72.549 298.447 72.4463 298.792 72.241C299.144 72.0357 299.419 71.7497 299.617 71.383C299.822 71.0163 299.925 70.5983 299.925 70.129C299.925 69.6597 299.822 69.2417 299.617 68.875C299.419 68.5083 299.144 68.2223 298.792 68.017C298.447 67.8117 298.055 67.709 297.615 67.709C297.175 67.709 296.779 67.8117 296.427 68.017C296.082 68.2223 295.807 68.5083 295.602 68.875C295.404 69.2417 295.305 69.6597 295.305 70.129C295.305 70.5983 295.404 71.0163 295.602 71.383C295.807 71.7497 296.082 72.0357 296.427 72.241C296.779 72.4463 297.175 72.549 297.615 72.549Z" fill="#676767"/>
<path d="M305.17 67.214C305.705 67.214 306.189 67.3387 306.622 67.588C307.055 67.8373 307.392 68.182 307.634 68.622C307.883 69.062 308.008 69.5643 308.008 70.129C308.008 70.6937 307.883 71.1997 307.634 71.647C307.392 72.087 307.055 72.4317 306.622 72.681C306.189 72.923 305.705 73.044 305.17 73.044C304.664 73.044 304.206 72.9267 303.795 72.692C303.384 72.45 303.065 72.1163 302.838 71.691V75.134H302.288V67.258H302.816V68.611C303.043 68.171 303.362 67.83 303.773 67.588C304.191 67.3387 304.657 67.214 305.17 67.214ZM305.137 72.549C305.577 72.549 305.973 72.4463 306.325 72.241C306.677 72.0357 306.952 71.7497 307.15 71.383C307.355 71.0163 307.458 70.5983 307.458 70.129C307.458 69.6597 307.355 69.2417 307.15 68.875C306.952 68.5083 306.677 68.2223 306.325 68.017C305.973 67.8117 305.577 67.709 305.137 67.709C304.697 67.709 304.301 67.8117 303.949 68.017C303.604 68.2223 303.329 68.5083 303.124 68.875C302.926 69.2417 302.827 69.6597 302.827 70.129C302.827 70.5983 302.926 71.0163 303.124 71.383C303.329 71.7497 303.604 72.0357 303.949 72.241C304.301 72.4463 304.697 72.549 305.137 72.549Z" fill="#676767"/>
<path d="M312.062 69.348C312.774 69.3553 313.316 69.513 313.69 69.821C314.064 70.1217 314.251 70.5653 314.251 71.152C314.251 71.7607 314.053 72.2263 313.657 72.549C313.261 72.8717 312.689 73.0293 311.941 73.022L309.796 73V67.258H310.346V69.326L312.062 69.348ZM315.307 67.258H315.857V73H315.307V67.258ZM311.919 72.582C312.506 72.5893 312.95 72.472 313.25 72.23C313.551 71.988 313.701 71.6287 313.701 71.152C313.701 70.69 313.555 70.349 313.261 70.129C312.968 69.9017 312.521 69.7807 311.919 69.766L310.346 69.755V72.56L311.919 72.582Z" fill="#676767"/>
<path d="M318.218 67.258H318.768V72.153L322.86 67.258H323.344V73H322.794V68.105L318.702 73H318.218V67.258ZM320.759 66.378C320.297 66.378 319.923 66.2607 319.637 66.026C319.351 65.784 319.205 65.4503 319.197 65.025H319.604C319.612 65.3257 319.722 65.564 319.934 65.74C320.154 65.916 320.429 66.004 320.759 66.004C321.089 66.004 321.361 65.916 321.573 65.74C321.786 65.564 321.896 65.3257 321.903 65.025H322.321C322.314 65.4503 322.167 65.784 321.881 66.026C321.595 66.2607 321.221 66.378 320.759 66.378Z" fill="#676767"/>
<path d="M330.863 73.044C330.305 73.044 329.807 72.9193 329.367 72.67C328.927 72.4207 328.582 72.076 328.333 71.636C328.083 71.1887 327.959 70.6863 327.959 70.129C327.959 69.5643 328.083 69.062 328.333 68.622C328.582 68.1747 328.927 67.83 329.367 67.588C329.807 67.3387 330.305 67.214 330.863 67.214C331.325 67.214 331.743 67.3057 332.117 67.489C332.498 67.665 332.806 67.9253 333.041 68.27L332.634 68.567C332.428 68.281 332.172 68.0683 331.864 67.929C331.563 67.7823 331.229 67.709 330.863 67.709C330.415 67.709 330.012 67.8117 329.653 68.017C329.301 68.215 329.022 68.4973 328.817 68.864C328.619 69.2307 328.52 69.6523 328.52 70.129C328.52 70.6057 328.619 71.0273 328.817 71.394C329.022 71.7607 329.301 72.0467 329.653 72.252C330.012 72.45 330.415 72.549 330.863 72.549C331.229 72.549 331.563 72.4793 331.864 72.34C332.172 72.1933 332.428 71.977 332.634 71.691L333.041 71.988C332.806 72.3327 332.498 72.5967 332.117 72.78C331.743 72.956 331.325 73.044 330.863 73.044Z" fill="#676767"/>
<path d="M336.856 73.044C336.313 73.044 335.822 72.9193 335.382 72.67C334.949 72.4207 334.608 72.076 334.359 71.636C334.11 71.1887 333.985 70.6863 333.985 70.129C333.985 69.5717 334.11 69.073 334.359 68.633C334.608 68.1857 334.949 67.8373 335.382 67.588C335.822 67.3387 336.313 67.214 336.856 67.214C337.399 67.214 337.886 67.3387 338.319 67.588C338.759 67.8373 339.104 68.1857 339.353 68.633C339.602 69.073 339.727 69.5717 339.727 70.129C339.727 70.6863 339.602 71.1887 339.353 71.636C339.104 72.076 338.759 72.4207 338.319 72.67C337.886 72.9193 337.399 73.044 336.856 73.044ZM336.856 72.549C337.296 72.549 337.688 72.4463 338.033 72.241C338.385 72.0357 338.66 71.7497 338.858 71.383C339.063 71.0163 339.166 70.5983 339.166 70.129C339.166 69.6597 339.063 69.2417 338.858 68.875C338.66 68.5083 338.385 68.2223 338.033 68.017C337.688 67.8117 337.296 67.709 336.856 67.709C336.416 67.709 336.02 67.8117 335.668 68.017C335.323 68.2223 335.048 68.5083 334.843 68.875C334.645 69.2417 334.546 69.6597 334.546 70.129C334.546 70.5983 334.645 71.0163 334.843 71.383C335.048 71.7497 335.323 72.0357 335.668 72.241C336.02 72.4463 336.416 72.549 336.856 72.549Z" fill="#676767"/>
<path d="M345.142 67.753H342.898V73H342.348V67.753H340.104V67.258H345.142V67.753Z" fill="#676767"/>
<path d="M349.719 70.041C350.562 70.1877 350.984 70.6607 350.984 71.46C350.984 71.9587 350.801 72.34 350.434 72.604C350.075 72.868 349.532 73 348.806 73H346.32V67.258H348.74C349.378 67.258 349.877 67.3863 350.236 67.643C350.603 67.8923 350.786 68.2517 350.786 68.721C350.786 69.0583 350.691 69.3407 350.5 69.568C350.316 69.788 350.056 69.9457 349.719 70.041ZM346.859 69.876H348.707C349.198 69.876 349.576 69.7843 349.84 69.601C350.104 69.4103 350.236 69.139 350.236 68.787C350.236 68.4277 350.104 68.16 349.84 67.984C349.583 67.8007 349.206 67.709 348.707 67.709H346.859V69.876ZM348.795 72.549C349.887 72.549 350.434 72.1787 350.434 71.438C350.434 71.0493 350.309 70.7633 350.06 70.58C349.811 70.3967 349.418 70.305 348.883 70.305H346.859V72.549H348.795Z" fill="#676767"/>
<path d="M355.225 73.044C354.682 73.044 354.191 72.9193 353.751 72.67C353.318 72.4207 352.977 72.076 352.728 71.636C352.479 71.1887 352.354 70.6863 352.354 70.129C352.354 69.5717 352.479 69.073 352.728 68.633C352.977 68.1857 353.318 67.8373 353.751 67.588C354.191 67.3387 354.682 67.214 355.225 67.214C355.768 67.214 356.255 67.3387 356.688 67.588C357.128 67.8373 357.473 68.1857 357.722 68.633C357.971 69.073 358.096 69.5717 358.096 70.129C358.096 70.6863 357.971 71.1887 357.722 71.636C357.473 72.076 357.128 72.4207 356.688 72.67C356.255 72.9193 355.768 73.044 355.225 73.044ZM355.225 72.549C355.665 72.549 356.057 72.4463 356.402 72.241C356.754 72.0357 357.029 71.7497 357.227 71.383C357.432 71.0163 357.535 70.5983 357.535 70.129C357.535 69.6597 357.432 69.2417 357.227 68.875C357.029 68.5083 356.754 68.2223 356.402 68.017C356.057 67.8117 355.665 67.709 355.225 67.709C354.785 67.709 354.389 67.8117 354.037 68.017C353.692 68.2223 353.417 68.5083 353.212 68.875C353.014 69.2417 352.915 69.6597 352.915 70.129C352.915 70.5983 353.014 71.0163 353.212 71.383C353.417 71.7497 353.692 72.0357 354.037 72.241C354.389 72.4463 354.785 72.549 355.225 72.549Z" fill="#676767"/>
<path d="M362.78 67.214C363.316 67.214 363.8 67.3387 364.232 67.588C364.665 67.8373 365.002 68.182 365.244 68.622C365.494 69.062 365.618 69.5643 365.618 70.129C365.618 70.6937 365.494 71.1997 365.244 71.647C365.002 72.087 364.665 72.4317 364.232 72.681C363.8 72.923 363.316 73.044 362.78 73.044C362.274 73.044 361.816 72.9267 361.405 72.692C360.995 72.45 360.676 72.1163 360.448 71.691V75.134H359.898V67.258H360.426V68.611C360.654 68.171 360.973 67.83 361.383 67.588C361.801 67.3387 362.267 67.214 362.78 67.214ZM362.747 72.549C363.187 72.549 363.583 72.4463 363.935 72.241C364.287 72.0357 364.562 71.7497 364.76 71.383C364.966 71.0163 365.068 70.5983 365.068 70.129C365.068 69.6597 364.966 69.2417 364.76 68.875C364.562 68.5083 364.287 68.2223 363.935 68.017C363.583 67.8117 363.187 67.709 362.747 67.709C362.307 67.709 361.911 67.8117 361.559 68.017C361.215 68.2223 360.94 68.5083 360.734 68.875C360.536 69.2417 360.437 69.6597 360.437 70.129C360.437 70.5983 360.536 71.0163 360.734 71.383C360.94 71.7497 361.215 72.0357 361.559 72.241C361.911 72.4463 362.307 72.549 362.747 72.549Z" fill="#676767"/>
<path d="M367.407 67.258H367.957V72.153L372.049 67.258H372.533V73H371.983V68.105L367.891 73H367.407V67.258Z" fill="#676767"/>
<path d="M379.393 67.258V73H378.843V67.753H375.851L375.774 69.282C375.73 70.074 375.664 70.7377 375.576 71.273C375.488 71.8083 375.337 72.241 375.125 72.571C374.912 72.901 374.619 73.066 374.245 73.066C374.135 73.066 373.977 73.0403 373.772 72.989L373.827 72.516C373.944 72.5453 374.032 72.56 374.091 72.56C374.399 72.56 374.633 72.4097 374.795 72.109C374.956 71.8083 375.066 71.4343 375.125 70.987C375.183 70.5397 375.231 69.9567 375.268 69.238L375.367 67.258H379.393Z" fill="#676767"/>
<path d="M387.993 70.041C388.837 70.1877 389.258 70.6607 389.258 71.46C389.258 71.9587 389.075 72.34 388.708 72.604C388.349 72.868 387.806 73 387.08 73H384.594V67.258H387.014C387.652 67.258 388.151 67.3863 388.51 67.643C388.877 67.8923 389.06 68.2517 389.06 68.721C389.06 69.0583 388.965 69.3407 388.774 69.568C388.591 69.788 388.331 69.9457 387.993 70.041ZM385.133 69.876H386.981C387.473 69.876 387.85 69.7843 388.114 69.601C388.378 69.4103 388.51 69.139 388.51 68.787C388.51 68.4277 388.378 68.16 388.114 67.984C387.858 67.8007 387.48 67.709 386.981 67.709H385.133V69.876ZM387.069 72.549C388.162 72.549 388.708 72.1787 388.708 71.438C388.708 71.0493 388.584 70.7633 388.334 70.58C388.085 70.3967 387.693 70.305 387.157 70.305H385.133V72.549H387.069Z" fill="#676767"/>
<path d="M393.532 73.044C392.975 73.044 392.476 72.9193 392.036 72.67C391.596 72.4207 391.252 72.076 391.002 71.636C390.753 71.1887 390.628 70.6863 390.628 70.129C390.628 69.5643 390.753 69.062 391.002 68.622C391.252 68.1747 391.596 67.83 392.036 67.588C392.476 67.3387 392.975 67.214 393.532 67.214C393.994 67.214 394.412 67.3057 394.786 67.489C395.168 67.665 395.476 67.9253 395.71 68.27L395.303 68.567C395.098 68.281 394.841 68.0683 394.533 67.929C394.233 67.7823 393.899 67.709 393.532 67.709C393.085 67.709 392.682 67.8117 392.322 68.017C391.97 68.215 391.692 68.4973 391.486 68.864C391.288 69.2307 391.189 69.6523 391.189 70.129C391.189 70.6057 391.288 71.0273 391.486 71.394C391.692 71.7607 391.97 72.0467 392.322 72.252C392.682 72.45 393.085 72.549 393.532 72.549C393.899 72.549 394.233 72.4793 394.533 72.34C394.841 72.1933 395.098 71.977 395.303 71.691L395.71 71.988C395.476 72.3327 395.168 72.5967 394.786 72.78C394.412 72.956 393.994 73.044 393.532 73.044Z" fill="#676767"/>
<path d="M402.133 70.261H397.194C397.208 70.7083 397.322 71.108 397.535 71.46C397.747 71.8047 398.033 72.0723 398.393 72.263C398.759 72.4537 399.17 72.549 399.625 72.549C399.999 72.549 400.343 72.483 400.659 72.351C400.981 72.2117 401.249 72.01 401.462 71.746L401.781 72.109C401.531 72.4097 401.216 72.6407 400.835 72.802C400.461 72.9633 400.054 73.044 399.614 73.044C399.042 73.044 398.532 72.9193 398.085 72.67C397.637 72.4207 397.285 72.076 397.029 71.636C396.779 71.196 396.655 70.6937 396.655 70.129C396.655 69.5717 396.772 69.073 397.007 68.633C397.249 68.1857 397.579 67.8373 397.997 67.588C398.415 67.3387 398.884 67.214 399.405 67.214C399.925 67.214 400.391 67.3387 400.802 67.588C401.22 67.83 401.546 68.171 401.781 68.611C402.023 69.051 402.144 69.5497 402.144 70.107L402.133 70.261ZM399.405 67.698C399.001 67.698 398.638 67.7897 398.316 67.973C397.993 68.149 397.733 68.402 397.535 68.732C397.344 69.0547 397.234 69.4213 397.205 69.832H401.605C401.583 69.4213 401.473 69.0547 401.275 68.732C401.077 68.4093 400.816 68.1563 400.494 67.973C400.171 67.7897 399.808 67.698 399.405 67.698Z" fill="#676767"/>
<path d="M409.087 73.044C408.53 73.044 408.031 72.9193 407.591 72.67C407.151 72.4207 406.806 72.076 406.557 71.636C406.308 71.1887 406.183 70.6863 406.183 70.129C406.183 69.5643 406.308 69.062 406.557 68.622C406.806 68.1747 407.151 67.83 407.591 67.588C408.031 67.3387 408.53 67.214 409.087 67.214C409.549 67.214 409.967 67.3057 410.341 67.489C410.722 67.665 411.03 67.9253 411.265 68.27L410.858 68.567C410.653 68.281 410.396 68.0683 410.088 67.929C409.787 67.7823 409.454 67.709 409.087 67.709C408.64 67.709 408.236 67.8117 407.877 68.017C407.525 68.215 407.246 68.4973 407.041 68.864C406.843 69.2307 406.744 69.6523 406.744 70.129C406.744 70.6057 406.843 71.0273 407.041 71.394C407.246 71.7607 407.525 72.0467 407.877 72.252C408.236 72.45 408.64 72.549 409.087 72.549C409.454 72.549 409.787 72.4793 410.088 72.34C410.396 72.1933 410.653 71.977 410.858 71.691L411.265 71.988C411.03 72.3327 410.722 72.5967 410.341 72.78C409.967 72.956 409.549 73.044 409.087 73.044Z" fill="#676767"/>
<path d="M417.467 67.258L414.519 73.781C414.299 74.287 414.043 74.6463 413.749 74.859C413.463 75.0717 413.122 75.178 412.726 75.178C412.462 75.178 412.213 75.134 411.978 75.046C411.751 74.958 411.557 74.8297 411.395 74.661L411.67 74.243C411.964 74.5437 412.319 74.694 412.737 74.694C413.016 74.694 413.254 74.617 413.452 74.463C413.65 74.309 413.834 74.045 414.002 73.671L414.31 72.978L411.725 67.258H412.308L414.607 72.395L416.906 67.258H417.467Z" fill="#676767"/>
<path d="M426.519 67.258V73H418.797V67.258H419.347V72.516H422.394V67.258H422.944V72.516H425.969V67.258H426.519ZM427.421 72.516V74.298H426.893V73H425.925V72.516H427.421Z" fill="#676767"/>
<path d="M433.79 70.261H428.851C428.866 70.7083 428.979 71.108 429.192 71.46C429.405 71.8047 429.691 72.0723 430.05 72.263C430.417 72.4537 430.827 72.549 431.282 72.549C431.656 72.549 432.001 72.483 432.316 72.351C432.639 72.2117 432.906 72.01 433.119 71.746L433.438 72.109C433.189 72.4097 432.873 72.6407 432.492 72.802C432.118 72.9633 431.711 73.044 431.271 73.044C430.699 73.044 430.189 72.9193 429.742 72.67C429.295 72.4207 428.943 72.076 428.686 71.636C428.437 71.196 428.312 70.6937 428.312 70.129C428.312 69.5717 428.429 69.073 428.664 68.633C428.906 68.1857 429.236 67.8373 429.654 67.588C430.072 67.3387 430.541 67.214 431.062 67.214C431.583 67.214 432.048 67.3387 432.459 67.588C432.877 67.83 433.203 68.171 433.438 68.611C433.68 69.051 433.801 69.5497 433.801 70.107L433.79 70.261ZM431.062 67.698C430.659 67.698 430.296 67.7897 429.973 67.973C429.65 68.149 429.39 68.402 429.192 68.732C429.001 69.0547 428.891 69.4213 428.862 69.832H433.262C433.24 69.4213 433.13 69.0547 432.932 68.732C432.734 68.4093 432.474 68.1563 432.151 67.973C431.828 67.7897 431.465 67.698 431.062 67.698Z" fill="#676767"/>
<path d="M440.493 70.261H435.554C435.569 70.7083 435.682 71.108 435.895 71.46C436.108 71.8047 436.394 72.0723 436.753 72.263C437.12 72.4537 437.53 72.549 437.985 72.549C438.359 72.549 438.704 72.483 439.019 72.351C439.342 72.2117 439.609 72.01 439.822 71.746L440.141 72.109C439.892 72.4097 439.576 72.6407 439.195 72.802C438.821 72.9633 438.414 73.044 437.974 73.044C437.402 73.044 436.892 72.9193 436.445 72.67C435.998 72.4207 435.646 72.076 435.389 71.636C435.14 71.196 435.015 70.6937 435.015 70.129C435.015 69.5717 435.132 69.073 435.367 68.633C435.609 68.1857 435.939 67.8373 436.357 67.588C436.775 67.3387 437.244 67.214 437.765 67.214C438.286 67.214 438.751 67.3387 439.162 67.588C439.58 67.83 439.906 68.171 440.141 68.611C440.383 69.051 440.504 69.5497 440.504 70.107L440.493 70.261ZM437.765 67.698C437.362 67.698 436.999 67.7897 436.676 67.973C436.353 68.149 436.093 68.402 435.895 68.732C435.704 69.0547 435.594 69.4213 435.565 69.832H439.965C439.943 69.4213 439.833 69.0547 439.635 68.732C439.437 68.4093 439.177 68.1563 438.854 67.973C438.531 67.7897 438.168 67.698 437.765 67.698Z" fill="#676767"/>
<path d="M442.213 72.109C442.345 72.109 442.455 72.1567 442.543 72.252C442.631 72.34 442.675 72.4463 442.675 72.571C442.675 72.6443 442.664 72.7213 442.642 72.802C442.628 72.8827 442.606 72.9743 442.576 73.077L442.147 74.573H441.751L442.114 73.022C442.004 72.9927 441.916 72.9413 441.85 72.868C441.784 72.7873 441.751 72.6883 441.751 72.571C441.751 72.439 441.795 72.329 441.883 72.241C441.971 72.153 442.081 72.109 442.213 72.109Z" fill="#676767"/>
</svg>
